<svg width="24" height="24" viewBox="0 0 24 24" fill="none" xmlns="http://www.w3.org/2000/svg">
<g clip-path="url(#clip0_312_11)">
<mask id="path-1-outside-1_312_11" maskUnits="userSpaceOnUse" x="-0.583984" y="-1" width="25" height="26" fill="black">
<rect fill="white" x="-0.583984" y="-1" width="25" height="26"/>
<path d="M23.56 14.7228C23.5463 14.6809 23.5274 14.6409 23.5037 14.6037C23.3647 14.3405 23.0269 14.2619 22.4963 14.3716C20.843 14.7127 20.2028 14.5028 19.9707 14.3525C21.3127 12.3043 22.4157 9.8305 23.0118 7.5228C23.2832 6.4721 23.81 3.9991 23.134 2.7912C23.0908 2.70853 23.0403 2.62988 22.9831 2.5562C21.6937 0.908601 19.8013 0.0248014 17.5105 0.000501403C16.0158 -0.0152986 14.74 0.346601 14.3944 0.479901C14.2233 0.447953 14.0512 0.420742 13.8785 0.398301C13.4456 0.319911 13.007 0.277168 12.5671 0.270501C11.3849 0.252101 10.3633 0.534701 9.51733 1.1111C8.66003 0.790001 4.72853 -0.533898 2.29543 1.1899C0.936533 2.1526 0.309233 3.8733 0.430833 6.3043C0.471733 7.1223 0.937733 9.6383 1.67313 12.0479C2.13293 13.5544 2.61183 14.7498 3.10653 15.6299C3.65953 16.6241 4.23243 17.2232 4.82083 17.4194C5.26823 17.5685 5.95353 17.5635 6.67893 16.6915C7.48013 15.728 8.26923 14.8657 8.62353 14.4846C9.05863 14.7201 9.52993 14.8471 10.0135 14.8618L10.0139 14.8659C9.92973 14.9662 9.84731 15.068 9.76673 15.1713C9.42783 15.6015 9.35733 15.691 8.26653 15.9156C7.95633 15.9796 7.13213 16.1495 7.12013 16.7271C7.11763 16.8495 7.15303 16.958 7.21203 17.0539C7.43893 17.477 8.13363 17.6636 8.22703 17.687C9.56153 18.0205 10.7314 17.779 11.5984 17.0083C11.5814 19.2393 11.6759 21.4257 11.9438 22.0957C12.165 22.6486 12.7056 24.0002 14.413 24C14.6635 24 14.9393 23.9709 15.2426 23.9059C17.0245 23.5238 17.7983 22.7363 18.0976 21C18.2479 20.1293 18.4992 18.1247 18.6364 16.8988C18.6533 16.8285 18.6721 16.7781 18.6934 16.7626C18.6934 16.7626 18.7631 16.7155 19.1206 16.7933C19.1352 16.7965 19.15 16.7987 19.1649 16.8001L19.4188 16.8224L19.4337 16.8234C20.2805 16.8618 21.3451 16.6808 21.9649 16.3926C22.6087 16.0938 23.7706 15.3603 23.56 14.7228ZM2.37163 11.8765C1.62813 9.4407 1.19373 6.9914 1.15933 6.3046C1.05073 4.1332 1.57643 2.6217 2.72163 1.8119C4.55833 0.513301 7.56143 1.2711 8.82963 1.6819C8.82643 1.6851 8.82303 1.688 8.81983 1.6913C6.79603 3.7353 6.84403 7.2273 6.84903 7.4408C6.84883 7.5231 6.85563 7.6397 6.86523 7.8001C6.90003 8.3874 6.96483 9.4805 6.79173 10.7185C6.63083 11.8689 6.98543 12.9949 7.76453 13.8077C7.84513 13.8918 7.92933 13.9708 8.01633 14.0451C7.66953 14.4165 6.91593 15.2377 6.11383 16.2027C5.54613 16.8852 5.15413 16.7544 5.02523 16.7114C4.63333 16.5807 4.21223 16.1243 3.78713 15.3891C3.30753 14.5501 2.82363 13.3574 2.37163 11.8765ZM8.37883 16.9636C8.20773 16.9208 8.05173 16.8504 7.94663 16.7864C8.03553 16.747 8.18403 16.6962 8.42993 16.6455C9.71323 16.3814 9.91143 16.1949 10.3442 15.6453C10.4434 15.5193 10.5558 15.3766 10.7115 15.2027C10.745 15.1651 10.7701 15.1209 10.7852 15.0729C10.956 14.9216 11.0576 14.963 11.2221 15.0312C11.3781 15.0958 11.5299 15.2912 11.5916 15.5064C11.6207 15.608 11.6535 15.8009 11.5464 15.9508C10.6421 17.2166 9.32483 17.2002 8.37883 16.9636ZM10.4728 12.9756L10.4203 13.1166C10.2873 13.4732 10.1636 13.8047 10.0869 14.1196C9.41953 14.1175 8.77013 13.8324 8.27643 13.3172C7.64853 12.6621 7.36333 11.7508 7.49393 10.8168C7.67673 9.5089 7.60923 8.37 7.57293 7.7582C7.56793 7.6725 7.56343 7.5975 7.56073 7.5383C7.85643 7.2762 9.22663 6.5421 10.2036 6.7659C10.6495 6.8681 10.9212 7.1716 11.0341 7.6939C11.6187 10.3977 11.1115 11.5246 10.7039 12.4302C10.6199 12.6168 10.5406 12.7931 10.4728 12.9756ZM17.8365 17.5481C17.8196 17.7249 17.8007 17.9241 17.7747 18.144L17.6287 18.5823C17.6171 18.617 17.611 18.6534 17.6105 18.69C17.6046 19.1647 17.5565 19.3389 17.4955 19.5593C17.4321 19.7885 17.3602 20.0484 17.3161 20.6168C17.2061 22.0311 16.4379 22.8435 14.8989 23.1733C13.3834 23.4984 13.1146 22.6765 12.8777 21.9516C12.8535 21.8756 12.8278 21.8001 12.8008 21.725C12.5854 21.1392 12.6097 20.3131 12.6434 19.1699C12.6599 18.6087 12.6185 17.2686 12.3132 16.5237C12.3176 16.2305 12.3238 15.9328 12.3322 15.6319C12.3332 15.5938 12.3281 15.5558 12.3169 15.5193C12.3073 15.449 12.2926 15.3795 12.273 15.3113C12.1504 14.883 11.8517 14.5247 11.4933 14.3762C11.3509 14.3172 11.0895 14.209 10.7755 14.2893C10.8425 14.0133 10.9586 13.7018 11.0845 13.3644L11.1374 13.2224C11.1969 13.0624 11.2714 12.8967 11.3504 12.7212C11.7769 11.7736 12.361 10.4759 11.727 7.544C11.4896 6.4459 10.6966 5.9097 9.49463 6.0342C8.77393 6.1088 8.11473 6.3996 7.78583 6.5663C7.71989 6.59972 7.65462 6.63443 7.59003 6.6704C7.68183 5.564 8.02863 3.4963 9.32573 2.1881C9.42208 2.09101 9.52332 1.9989 9.62903 1.9121C9.68152 1.90187 9.731 1.87985 9.77373 1.8477C10.5261 1.2771 11.4682 0.997101 12.5757 1.0152C12.9848 1.0219 13.3774 1.0491 13.7499 1.0962C15.6889 1.4506 16.9938 2.543 17.7858 3.4789C18.6001 4.4412 19.041 5.4104 19.217 5.9332C17.8938 5.7986 16.9936 6.06 16.5373 6.7122C15.5447 8.1311 17.0803 10.8851 17.8184 12.2086C17.9537 12.4512 18.0706 12.6608 18.1073 12.7499C18.3476 13.3324 18.6588 13.7212 18.886 14.0051C18.9556 14.0921 19.0232 14.1765 19.0745 14.2501C18.6737 14.3656 17.9537 14.6326 18.0193 15.9671C18.007 16.1234 17.977 16.414 17.9359 16.7819C17.8898 16.9896 17.8657 17.2422 17.8365 17.5481ZM18.727 15.927C18.6865 15.0954 18.9961 15.0085 19.3237 14.9165C19.3691 14.9041 19.4141 14.8905 19.4587 14.8759C19.501 14.9133 19.5458 14.9478 19.5929 14.9789C20.1632 15.3554 21.1752 15.4002 22.5997 15.1133C22.3981 15.2902 22.0808 15.5127 21.6464 15.7144C21.2366 15.9047 20.5507 16.0474 19.8991 16.078C19.1794 16.1116 18.8132 15.9973 18.727 15.927ZM19.2965 6.6558C19.2906 7.0066 19.2423 7.325 19.1911 7.6575C19.1361 8.0151 19.0791 8.3849 19.0647 8.8337C19.0505 9.2705 19.1051 9.7246 19.1579 10.1638C19.2645 11.0508 19.3739 11.9641 18.9504 12.8652C18.8801 12.7406 18.8175 12.6118 18.7628 12.4796C18.7101 12.352 18.5959 12.147 18.4377 11.8634C17.8221 10.7593 16.3803 8.1738 17.1184 7.1188C17.4979 6.5761 18.4592 6.5527 19.2965 6.6558ZM19.5249 13.6695C19.4967 13.6335 19.4683 13.5977 19.4396 13.5621L19.4041 13.5177C20.1303 12.3182 19.9883 11.1315 19.8619 10.0792C19.81 9.6474 19.761 9.2396 19.7734 8.8566C19.7863 8.4505 19.84 8.1023 19.8919 7.7655C19.9558 7.3505 20.0207 6.9212 20.0028 6.415C20.0162 6.3619 20.0216 6.2992 20.0146 6.2248C19.9689 5.7393 19.4147 4.2868 18.2852 2.9718C17.6776 2.2645 16.7956 1.4746 15.5963 0.932301C16.1214 0.825701 16.8291 0.728801 17.6207 0.746401C19.6722 0.792001 21.2953 1.5599 22.4449 3.0288C22.4694 3.06069 22.4916 3.09416 22.5116 3.129C23.2347 4.4846 22.2354 9.4041 19.5249 13.6695ZM10.7083 7.5533C10.6833 7.7327 10.3994 7.9758 10.0872 7.9758C10.0602 7.97582 10.0331 7.97395 10.0063 7.9702C9.81903 7.9442 9.62983 7.8262 9.50043 7.6546C9.45463 7.5941 9.38013 7.4766 9.39493 7.3702C9.40043 7.3301 9.42103 7.2717 9.48743 7.2214C9.60563 7.132 9.83923 7.0988 10.097 7.1347C10.4133 7.1788 10.7396 7.3285 10.7083 7.5533ZM18.6388 7.1419C18.6499 7.2211 18.5898 7.3429 18.4857 7.4521C18.4174 7.5238 18.2737 7.6482 18.0778 7.6753C18.053 7.67876 18.0279 7.68049 18.0028 7.6805C17.7093 7.6805 17.4614 7.4461 17.4421 7.3088C17.4181 7.1323 17.7062 6.9982 18.0032 6.9568C18.3002 6.9154 18.6143 6.9656 18.6388 7.1419Z"/>
</mask>
<path d="M23.56 14.7228C23.5463 14.6809 23.5274 14.6409 23.5037 14.6037C23.3647 14.3405 23.0269 14.2619 22.4963 14.3716C20.843 14.7127 20.2028 14.5028 19.9707 14.3525C21.3127 12.3043 22.4157 9.8305 23.0118 7.5228C23.2832 6.4721 23.81 3.9991 23.134 2.7912C23.0908 2.70853 23.0403 2.62988 22.9831 2.5562C21.6937 0.908601 19.8013 0.0248014 17.5105 0.000501403C16.0158 -0.0152986 14.74 0.346601 14.3944 0.479901C14.2233 0.447953 14.0512 0.420742 13.8785 0.398301C13.4456 0.319911 13.007 0.277168 12.5671 0.270501C11.3849 0.252101 10.3633 0.534701 9.51733 1.1111C8.66003 0.790001 4.72853 -0.533898 2.29543 1.1899C0.936533 2.1526 0.309233 3.8733 0.430833 6.3043C0.471733 7.1223 0.937733 9.6383 1.67313 12.0479C2.13293 13.5544 2.61183 14.7498 3.10653 15.6299C3.65953 16.6241 4.23243 17.2232 4.82083 17.4194C5.26823 17.5685 5.95353 17.5635 6.67893 16.6915C7.48013 15.728 8.26923 14.8657 8.62353 14.4846C9.05863 14.7201 9.52993 14.8471 10.0135 14.8618L10.0139 14.8659C9.92973 14.9662 9.84731 15.068 9.76673 15.1713C9.42783 15.6015 9.35733 15.691 8.26653 15.9156C7.95633 15.9796 7.13213 16.1495 7.12013 16.7271C7.11763 16.8495 7.15303 16.958 7.21203 17.0539C7.43893 17.477 8.13363 17.6636 8.22703 17.687C9.56153 18.0205 10.7314 17.779 11.5984 17.0083C11.5814 19.2393 11.6759 21.4257 11.9438 22.0957C12.165 22.6486 12.7056 24.0002 14.413 24C14.6635 24 14.9393 23.9709 15.2426 23.9059C17.0245 23.5238 17.7983 22.7363 18.0976 21C18.2479 20.1293 18.4992 18.1247 18.6364 16.8988C18.6533 16.8285 18.6721 16.7781 18.6934 16.7626C18.6934 16.7626 18.7631 16.7155 19.1206 16.7933C19.1352 16.7965 19.15 16.7987 19.1649 16.8001L19.4188 16.8224L19.4337 16.8234C20.2805 16.8618 21.3451 16.6808 21.9649 16.3926C22.6087 16.0938 23.7706 15.3603 23.56 14.7228ZM2.37163 11.8765C1.62813 9.4407 1.19373 6.9914 1.15933 6.3046C1.05073 4.1332 1.57643 2.6217 2.72163 1.8119C4.55833 0.513301 7.56143 1.2711 8.82963 1.6819C8.82643 1.6851 8.82303 1.688 8.81983 1.6913C6.79603 3.7353 6.84403 7.2273 6.84903 7.4408C6.84883 7.5231 6.85563 7.6397 6.86523 7.8001C6.90003 8.3874 6.96483 9.4805 6.79173 10.7185C6.63083 11.8689 6.98543 12.9949 7.76453 13.8077C7.84513 13.8918 7.92933 13.9708 8.01633 14.0451C7.66953 14.4165 6.91593 15.2377 6.11383 16.2027C5.54613 16.8852 5.15413 16.7544 5.02523 16.7114C4.63333 16.5807 4.21223 16.1243 3.78713 15.3891C3.30753 14.5501 2.82363 13.3574 2.37163 11.8765ZM8.37883 16.9636C8.20773 16.9208 8.05173 16.8504 7.94663 16.7864C8.03553 16.747 8.18403 16.6962 8.42993 16.6455C9.71323 16.3814 9.91143 16.1949 10.3442 15.6453C10.4434 15.5193 10.5558 15.3766 10.7115 15.2027C10.745 15.1651 10.7701 15.1209 10.7852 15.0729C10.956 14.9216 11.0576 14.963 11.2221 15.0312C11.3781 15.0958 11.5299 15.2912 11.5916 15.5064C11.6207 15.608 11.6535 15.8009 11.5464 15.9508C10.6421 17.2166 9.32483 17.2002 8.37883 16.9636ZM10.4728 12.9756L10.4203 13.1166C10.2873 13.4732 10.1636 13.8047 10.0869 14.1196C9.41953 14.1175 8.77013 13.8324 8.27643 13.3172C7.64853 12.6621 7.36333 11.7508 7.49393 10.8168C7.67673 9.5089 7.60923 8.37 7.57293 7.7582C7.56793 7.6725 7.56343 7.5975 7.56073 7.5383C7.85643 7.2762 9.22663 6.5421 10.2036 6.7659C10.6495 6.8681 10.9212 7.1716 11.0341 7.6939C11.6187 10.3977 11.1115 11.5246 10.7039 12.4302C10.6199 12.6168 10.5406 12.7931 10.4728 12.9756ZM17.8365 17.5481C17.8196 17.7249 17.8007 17.9241 17.7747 18.144L17.6287 18.5823C17.6171 18.617 17.611 18.6534 17.6105 18.69C17.6046 19.1647 17.5565 19.3389 17.4955 19.5593C17.4321 19.7885 17.3602 20.0484 17.3161 20.6168C17.2061 22.0311 16.4379 22.8435 14.8989 23.1733C13.3834 23.4984 13.1146 22.6765 12.8777 21.9516C12.8535 21.8756 12.8278 21.8001 12.8008 21.725C12.5854 21.1392 12.6097 20.3131 12.6434 19.1699C12.6599 18.6087 12.6185 17.2686 12.3132 16.5237C12.3176 16.2305 12.3238 15.9328 12.3322 15.6319C12.3332 15.5938 12.3281 15.5558 12.3169 15.5193C12.3073 15.449 12.2926 15.3795 12.273 15.3113C12.1504 14.883 11.8517 14.5247 11.4933 14.3762C11.3509 14.3172 11.0895 14.209 10.7755 14.2893C10.8425 14.0133 10.9586 13.7018 11.0845 13.3644L11.1374 13.2224C11.1969 13.0624 11.2714 12.8967 11.3504 12.7212C11.7769 11.7736 12.361 10.4759 11.727 7.544C11.4896 6.4459 10.6966 5.9097 9.49463 6.0342C8.77393 6.1088 8.11473 6.3996 7.78583 6.5663C7.71989 6.59972 7.65462 6.63443 7.59003 6.6704C7.68183 5.564 8.02863 3.4963 9.32573 2.1881C9.42208 2.09101 9.52332 1.9989 9.62903 1.9121C9.68152 1.90187 9.731 1.87985 9.77373 1.8477C10.5261 1.2771 11.4682 0.997101 12.5757 1.0152C12.9848 1.0219 13.3774 1.0491 13.7499 1.0962C15.6889 1.4506 16.9938 2.543 17.7858 3.4789C18.6001 4.4412 19.041 5.4104 19.217 5.9332C17.8938 5.7986 16.9936 6.06 16.5373 6.7122C15.5447 8.1311 17.0803 10.8851 17.8184 12.2086C17.9537 12.4512 18.0706 12.6608 18.1073 12.7499C18.3476 13.3324 18.6588 13.7212 18.886 14.0051C18.9556 14.0921 19.0232 14.1765 19.0745 14.2501C18.6737 14.3656 17.9537 14.6326 18.0193 15.9671C18.007 16.1234 17.977 16.414 17.9359 16.7819C17.8898 16.9896 17.8657 17.2422 17.8365 17.5481ZM18.727 15.927C18.6865 15.0954 18.9961 15.0085 19.3237 14.9165C19.3691 14.9041 19.4141 14.8905 19.4587 14.8759C19.501 14.9133 19.5458 14.9478 19.5929 14.9789C20.1632 15.3554 21.1752 15.4002 22.5997 15.1133C22.3981 15.2902 22.0808 15.5127 21.6464 15.7144C21.2366 15.9047 20.5507 16.0474 19.8991 16.078C19.1794 16.1116 18.8132 15.9973 18.727 15.927ZM19.2965 6.6558C19.2906 7.0066 19.2423 7.325 19.1911 7.6575C19.1361 8.0151 19.0791 8.3849 19.0647 8.8337C19.0505 9.2705 19.1051 9.7246 19.1579 10.1638C19.2645 11.0508 19.3739 11.9641 18.9504 12.8652C18.8801 12.7406 18.8175 12.6118 18.7628 12.4796C18.7101 12.352 18.5959 12.147 18.4377 11.8634C17.8221 10.7593 16.3803 8.1738 17.1184 7.1188C17.4979 6.5761 18.4592 6.5527 19.2965 6.6558ZM19.5249 13.6695C19.4967 13.6335 19.4683 13.5977 19.4396 13.5621L19.4041 13.5177C20.1303 12.3182 19.9883 11.1315 19.8619 10.0792C19.81 9.6474 19.761 9.2396 19.7734 8.8566C19.7863 8.4505 19.84 8.1023 19.8919 7.7655C19.9558 7.3505 20.0207 6.9212 20.0028 6.415C20.0162 6.3619 20.0216 6.2992 20.0146 6.2248C19.9689 5.7393 19.4147 4.2868 18.2852 2.9718C17.6776 2.2645 16.7956 1.4746 15.5963 0.932301C16.1214 0.825701 16.8291 0.728801 17.6207 0.746401C19.6722 0.792001 21.2953 1.5599 22.4449 3.0288C22.4694 3.06069 22.4916 3.09416 22.5116 3.129C23.2347 4.4846 22.2354 9.4041 19.5249 13.6695ZM10.7083 7.5533C10.6833 7.7327 10.3994 7.9758 10.0872 7.9758C10.0602 7.97582 10.0331 7.97395 10.0063 7.9702C9.81903 7.9442 9.62983 7.8262 9.50043 7.6546C9.45463 7.5941 9.38013 7.4766 9.39493 7.3702C9.40043 7.3301 9.42103 7.2717 9.48743 7.2214C9.60563 7.132 9.83923 7.0988 10.097 7.1347C10.4133 7.1788 10.7396 7.3285 10.7083 7.5533ZM18.6388 7.1419C18.6499 7.2211 18.5898 7.3429 18.4857 7.4521C18.4174 7.5238 18.2737 7.6482 18.0778 7.6753C18.053 7.67876 18.0279 7.68049 18.0028 7.6805C17.7093 7.6805 17.4614 7.4461 17.4421 7.3088C17.4181 7.1323 17.7062 6.9982 18.0032 6.9568C18.3002 6.9154 18.6143 6.9656 18.6388 7.1419Z" fill="black"/>
<path d="M23.56 14.7228C23.5463 14.6809 23.5274 14.6409 23.5037 14.6037C23.3647 14.3405 23.0269 14.2619 22.4963 14.3716C20.843 14.7127 20.2028 14.5028 19.9707 14.3525C21.3127 12.3043 22.4157 9.8305 23.0118 7.5228C23.2832 6.4721 23.81 3.9991 23.134 2.7912C23.0908 2.70853 23.0403 2.62988 22.9831 2.5562C21.6937 0.908601 19.8013 0.0248014 17.5105 0.000501403C16.0158 -0.0152986 14.74 0.346601 14.3944 0.479901C14.2233 0.447953 14.0512 0.420742 13.8785 0.398301C13.4456 0.319911 13.007 0.277168 12.5671 0.270501C11.3849 0.252101 10.3633 0.534701 9.51733 1.1111C8.66003 0.790001 4.72853 -0.533898 2.29543 1.1899C0.936533 2.1526 0.309233 3.8733 0.430833 6.3043C0.471733 7.1223 0.937733 9.6383 1.67313 12.0479C2.13293 13.5544 2.61183 14.7498 3.10653 15.6299C3.65953 16.6241 4.23243 17.2232 4.82083 17.4194C5.26823 17.5685 5.95353 17.5635 6.67893 16.6915C7.48013 15.728 8.26923 14.8657 8.62353 14.4846C9.05863 14.7201 9.52993 14.8471 10.0135 14.8618L10.0139 14.8659C9.92973 14.9662 9.84731 15.068 9.76673 15.1713C9.42783 15.6015 9.35733 15.691 8.26653 15.9156C7.95633 15.9796 7.13213 16.1495 7.12013 16.7271C7.11763 16.8495 7.15303 16.958 7.21203 17.0539C7.43893 17.477 8.13363 17.6636 8.22703 17.687C9.56153 18.0205 10.7314 17.779 11.5984 17.0083C11.5814 19.2393 11.6759 21.4257 11.9438 22.0957C12.165 22.6486 12.7056 24.0002 14.413 24C14.6635 24 14.9393 23.9709 15.2426 23.9059C17.0245 23.5238 17.7983 22.7363 18.0976 21C18.2479 20.1293 18.4992 18.1247 18.6364 16.8988C18.6533 16.8285 18.6721 16.7781 18.6934 16.7626C18.6934 16.7626 18.7631 16.7155 19.1206 16.7933C19.1352 16.7965 19.15 16.7987 19.1649 16.8001L19.4188 16.8224L19.4337 16.8234C20.2805 16.8618 21.3451 16.6808 21.9649 16.3926C22.6087 16.0938 23.7706 15.3603 23.56 14.7228ZM2.37163 11.8765C1.62813 9.4407 1.19373 6.9914 1.15933 6.3046C1.05073 4.1332 1.57643 2.6217 2.72163 1.8119C4.55833 0.513301 7.56143 1.2711 8.82963 1.6819C8.82643 1.6851 8.82303 1.688 8.81983 1.6913C6.79603 3.7353 6.84403 7.2273 6.84903 7.4408C6.84883 7.5231 6.85563 7.6397 6.86523 7.8001C6.90003 8.3874 6.96483 9.4805 6.79173 10.7185C6.63083 11.8689 6.98543 12.9949 7.76453 13.8077C7.84513 13.8918 7.92933 13.9708 8.01633 14.0451C7.66953 14.4165 6.91593 15.2377 6.11383 16.2027C5.54613 16.8852 5.15413 16.7544 5.02523 16.7114C4.63333 16.5807 4.21223 16.1243 3.78713 15.3891C3.30753 14.5501 2.82363 13.3574 2.37163 11.8765ZM8.37883 16.9636C8.20773 16.9208 8.05173 16.8504 7.94663 16.7864C8.03553 16.747 8.18403 16.6962 8.42993 16.6455C9.71323 16.3814 9.91143 16.1949 10.3442 15.6453C10.4434 15.5193 10.5558 15.3766 10.7115 15.2027C10.745 15.1651 10.7701 15.1209 10.7852 15.0729C10.956 14.9216 11.0576 14.963 11.2221 15.0312C11.3781 15.0958 11.5299 15.2912 11.5916 15.5064C11.6207 15.608 11.6535 15.8009 11.5464 15.9508C10.6421 17.2166 9.32483 17.2002 8.37883 16.9636ZM10.4728 12.9756L10.4203 13.1166C10.2873 13.4732 10.1636 13.8047 10.0869 14.1196C9.41953 14.1175 8.77013 13.8324 8.27643 13.3172C7.64853 12.6621 7.36333 11.7508 7.49393 10.8168C7.67673 9.5089 7.60923 8.37 7.57293 7.7582C7.56793 7.6725 7.56343 7.5975 7.56073 7.5383C7.85643 7.2762 9.22663 6.5421 10.2036 6.7659C10.6495 6.8681 10.9212 7.1716 11.0341 7.6939C11.6187 10.3977 11.1115 11.5246 10.7039 12.4302C10.6199 12.6168 10.5406 12.7931 10.4728 12.9756ZM17.8365 17.5481C17.8196 17.7249 17.8007 17.9241 17.7747 18.144L17.6287 18.5823C17.6171 18.617 17.611 18.6534 17.6105 18.69C17.6046 19.1647 17.5565 19.3389 17.4955 19.5593C17.4321 19.7885 17.3602 20.0484 17.3161 20.6168C17.2061 22.0311 16.4379 22.8435 14.8989 23.1733C13.3834 23.4984 13.1146 22.6765 12.8777 21.9516C12.8535 21.8756 12.8278 21.8001 12.8008 21.725C12.5854 21.1392 12.6097 20.3131 12.6434 19.1699C12.6599 18.6087 12.6185 17.2686 12.3132 16.5237C12.3176 16.2305 12.3238 15.9328 12.3322 15.6319C12.3332 15.5938 12.3281 15.5558 12.3169 15.5193C12.3073 15.449 12.2926 15.3795 12.273 15.3113C12.1504 14.883 11.8517 14.5247 11.4933 14.3762C11.3509 14.3172 11.0895 14.209 10.7755 14.2893C10.8425 14.0133 10.9586 13.7018 11.0845 13.3644L11.1374 13.2224C11.1969 13.0624 11.2714 12.8967 11.3504 12.7212C11.7769 11.7736 12.361 10.4759 11.727 7.544C11.4896 6.4459 10.6966 5.9097 9.49463 6.0342C8.77393 6.1088 8.11473 6.3996 7.78583 6.5663C7.71989 6.59972 7.65462 6.63443 7.59003 6.6704C7.68183 5.564 8.02863 3.4963 9.32573 2.1881C9.42208 2.09101 9.52332 1.9989 9.62903 1.9121C9.68152 1.90187 9.731 1.87985 9.77373 1.8477C10.5261 1.2771 11.4682 0.997101 12.5757 1.0152C12.9848 1.0219 13.3774 1.0491 13.7499 1.0962C15.6889 1.4506 16.9938 2.543 17.7858 3.4789C18.6001 4.4412 19.041 5.4104 19.217 5.9332C17.8938 5.7986 16.9936 6.06 16.5373 6.7122C15.5447 8.1311 17.0803 10.8851 17.8184 12.2086C17.9537 12.4512 18.0706 12.6608 18.1073 12.7499C18.3476 13.3324 18.6588 13.7212 18.886 14.0051C18.9556 14.0921 19.0232 14.1765 19.0745 14.2501C18.6737 14.3656 17.9537 14.6326 18.0193 15.9671C18.007 16.1234 17.977 16.414 17.9359 16.7819C17.8898 16.9896 17.8657 17.2422 17.8365 17.5481ZM18.727 15.927C18.6865 15.0954 18.9961 15.0085 19.3237 14.9165C19.3691 14.9041 19.4141 14.8905 19.4587 14.8759C19.501 14.9133 19.5458 14.9478 19.5929 14.9789C20.1632 15.3554 21.1752 15.4002 22.5997 15.1133C22.3981 15.2902 22.0808 15.5127 21.6464 15.7144C21.2366 15.9047 20.5507 16.0474 19.8991 16.078C19.1794 16.1116 18.8132 15.9973 18.727 15.927ZM19.2965 6.6558C19.2906 7.0066 19.2423 7.325 19.1911 7.6575C19.1361 8.0151 19.0791 8.3849 19.0647 8.8337C19.0505 9.2705 19.1051 9.7246 19.1579 10.1638C19.2645 11.0508 19.3739 11.9641 18.9504 12.8652C18.8801 12.7406 18.8175 12.6118 18.7628 12.4796C18.7101 12.352 18.5959 12.147 18.4377 11.8634C17.8221 10.7593 16.3803 8.1738 17.1184 7.1188C17.4979 6.5761 18.4592 6.5527 19.2965 6.6558ZM19.5249 13.6695C19.4967 13.6335 19.4683 13.5977 19.4396 13.5621L19.4041 13.5177C20.1303 12.3182 19.9883 11.1315 19.8619 10.0792C19.81 9.6474 19.761 9.2396 19.7734 8.8566C19.7863 8.4505 19.84 8.1023 19.8919 7.7655C19.9558 7.3505 20.0207 6.9212 20.0028 6.415C20.0162 6.3619 20.0216 6.2992 20.0146 6.2248C19.9689 5.7393 19.4147 4.2868 18.2852 2.9718C17.6776 2.2645 16.7956 1.4746 15.5963 0.932301C16.1214 0.825701 16.8291 0.728801 17.6207 0.746401C19.6722 0.792001 21.2953 1.5599 22.4449 3.0288C22.4694 3.06069 22.4916 3.09416 22.5116 3.129C23.2347 4.4846 22.2354 9.4041 19.5249 13.6695ZM10.7083 7.5533C10.6833 7.7327 10.3994 7.9758 10.0872 7.9758C10.0602 7.97582 10.0331 7.97395 10.0063 7.9702C9.81903 7.9442 9.62983 7.8262 9.50043 7.6546C9.45463 7.5941 9.38013 7.4766 9.39493 7.3702C9.40043 7.3301 9.42103 7.2717 9.48743 7.2214C9.60563 7.132 9.83923 7.0988 10.097 7.1347C10.4133 7.1788 10.7396 7.3285 10.7083 7.5533ZM18.6388 7.1419C18.6499 7.2211 18.5898 7.3429 18.4857 7.4521C18.4174 7.5238 18.2737 7.6482 18.0778 7.6753C18.053 7.67876 18.0279 7.68049 18.0028 7.6805C17.7093 7.6805 17.4614 7.4461 17.4421 7.3088C17.4181 7.1323 17.7062 6.9982 18.0032 6.9568C18.3002 6.9154 18.6143 6.9656 18.6388 7.1419Z" stroke="black" stroke-width="0.3" mask="url(#path-1-outside-1_312_11)"/>
</g>
<defs>
<clipPath id="clip0_312_11">
<rect width="24" height="24" fill="white"/>
</clipPath>
</defs>
</svg>
